<?xml version="1.0" encoding="UTF-8"?>
<svg xmlns="http://www.w3.org/2000/svg" version="1.1" viewBox="0 0 800 800">
  <defs>
    <style>
      .cls-1 {
        fill: none;
      }
    </style>
  </defs>
  <!-- Generator: Adobe Illustrator 28.6.0, SVG Export Plug-In . SVG Version: 1.2.0 Build 709)  -->
  <g>
    <g id="Layer_1">
      <path d="M350.7,400c-27.3.7-49.3,22.7-50,50,0,27.6,22.4,50,50,50,27.6,0,50-22.4,50-50,0-27.6-22.4-50-50-50M350.7,100c151.8-4.3,278.4,114.9,283.3,266.7l-3.3,33.3h-13.3c-20.8-.4-41.3,4.2-60,13.3l16.7,53.3h126.7c18.4,0,33.3,14.9,33.3,33.3s-14.9,33.3-33.3,33.3v100c18.4,0,33.3,14.9,33.3,33.3,0,18.4-14.9,33.3-33.3,33.3h-96.7c-16.3,2.4-31.9-7.6-36.7-23.3l-40-143.3h-30c-6.7,76.7-40,133.3-113.3,133.3-116.7,0-150-133.3-286.7-133.3-23.3-52.3-33.6-109.5-30-166.7,4.9-151.7,131.6-271,283.3-266.7M594,533.3l30,100h10s0-100,0-100h-40Z"/>
      <rect class="cls-1" width="800" height="800"/>
    </g>
  </g>
</svg>