<?xml version="1.0" encoding="UTF-8"?>
<svg id="Layer_1" xmlns="http://www.w3.org/2000/svg" viewBox="0 0 800 800">
  <defs>
    <style>
      .cls-1 {
        fill: rgb(15 23 42);
      }
    </style>
  </defs>
  <path class="cls-1" d="M341.92,400.09c-31.91.82-57.62,26.53-58.44,58.44,0,32.26,26.18,58.44,58.44,58.44s58.44-26.18,58.44-58.44-26.18-58.44-58.44-58.44M341.92,49.48c177.41-5.03,325.37,134.29,331.1,311.7l-3.86,38.92h-15.54c-24.31-.47-48.27,4.91-70.12,15.54l19.52,62.29h148.08c21.5,0,38.92,17.41,38.92,38.92s-17.41,38.92-38.92,38.92v116.87c21.5,0,38.92,17.41,38.92,38.92s-17.41,38.92-38.92,38.92h-113.01c-19.05,2.8-37.28-8.88-42.89-27.23l-46.75-167.48h-35.06c-7.83,89.64-46.75,155.79-132.42,155.79-136.39,0-175.31-155.79-335.07-155.79-27.23-61.12-39.27-127.97-35.06-194.82C16.55,183.65,164.62,44.22,341.92,49.24M626.26,555.88l35.06,116.87h11.69v-116.87h-46.75Z"/>
</svg>