<?xml version="1.0" encoding="UTF-8"?>
<svg id="Layer_2" xmlns="http://www.w3.org/2000/svg" viewBox="0 0 167.45 251.93">
  <defs>
    <style>
      .cls-1 {
        fill: #475569;
        stroke-width: 2.58px;
      }

      .cls-1, .cls-2, .cls-3 {
        stroke-miterlimit: 10;
      }

      .cls-1, .cls-3 {
        stroke: #f8fafc;
      }

      .cls-2 {
        fill: #94a3b8;
        stroke: #334155;
        stroke-width: 21.93px;
      }

      .cls-3 {
        stroke-width: 7.74px;
      }

      .cls-4 {
        fill: #64748b;
      }
    </style>
  </defs>
  <g id="Layer_1-2" data-name="Layer_1">
    <g>
      <path class="cls-2" d="M83.72,10.97c-4.32,0-13.65,2.09-27.62,16.07-5.84,5.84-11.82,13.13-17.79,21.68-5.5,7.83-10.34,16.11-14.48,24.75-8.53,17.99-12.86,36.15-12.86,53.98,0,17.84,4.33,36,12.87,53.98,3.96,8.35,8.82,16.67,14.47,24.75,21.17,30.28,37.54,34.81,45.42,34.8,5.19,0,16.01-2.12,30.23-16.34h0c5.04-5.05,10.15-11.26,15.19-18.47,5.67-8.11,10.53-16.44,14.47-24.74,8.54-17.99,12.87-36.15,12.87-53.99,0-17.84-4.34-36-12.88-53.98-3.95-8.31-8.82-16.64-14.47-24.74C104.66,13.69,88.19,10.97,83.72,10.97"/>
      <path class="cls-3" d="M83.72,10.97c-4.32,0-13.65,2.09-27.62,16.07-5.84,5.84-11.82,13.13-17.79,21.68-5.5,7.83-10.34,16.11-14.48,24.75-8.53,17.99-12.86,36.15-12.86,53.98,0,17.84,4.33,36,12.87,53.98,3.96,8.35,8.82,16.67,14.47,24.75,21.17,30.28,37.54,34.81,45.42,34.8,5.19,0,16.01-2.12,30.23-16.34h0c5.04-5.05,10.15-11.26,15.19-18.47,5.67-8.11,10.53-16.44,14.47-24.74,8.54-17.99,12.87-36.15,12.87-53.99,0-17.84-4.34-36-12.88-53.98-3.95-8.31-8.82-16.64-14.47-24.74C104.66,13.69,88.19,10.97,83.72,10.97"/>
      <path class="cls-1" d="M70.69,109.68c-4.2,0-4.21-6.52,0-6.52h9.79c0-4.82,0-9.24,0-13.05h-9.79c-4.21,0-4.2-6.52,0-6.53h9.79s0-5.86,0-5.86c0-4.2,6.52-4.2,6.52,0v5.87s9.78,0,9.78,0c4.21,0,4.21,6.52,0,6.52h-9.79s0,13.05,0,13.05h9.78c4.21,0,4.2,6.53,0,6.52h-9.79s0,13.05,0,13.05h9.78c4.21,0,4.21,6.52,0,6.52h-9.78s0,13.04,0,13.04c3.26,0,6.52,0,9.78,0,4.2,0,4.2,6.52,0,6.52h-9.78s0,13.04,0,13.04h9.78c4.2,0,4.21,6.52,0,6.52h-9.78c0,2.78,0,4.83,0,5.87,0,4.2-6.52,4.2-6.52,0v-5.86c-3.26,0-6.52,0-9.78,0-4.21,0-4.21-6.52,0-6.52h9.79s0-13.04,0-13.04h-9.79c-4.2,0-4.2-6.53,0-6.53h9.79s0-13.05,0-13.05h-9.78c-4.21,0-4.21-6.52,0-6.52h9.79s0-13.05,0-13.05h-9.79"/>
      <path class="cls-1" d="M124.31,202.79c-.72,1.04-1.45,2.01-2.18,3-12.15,3.24-25.09,4.95-38.39,4.94-13.29,0-26.24-1.71-38.38-4.94-.72-.99-1.44-1.94-2.18-3-4.57-6.54-8.68-13.39-12.28-20.51,15.53,7.27,33.71,11.23,52.84,11.23,19.12,0,37.3-3.95,52.84-11.22-3.6,7.12-7.71,13.97-12.28,20.5"/>
      <path class="cls-1" d="M136.58,72.62c-15.54-7.27-33.71-11.22-52.84-11.22-19.12,0-37.3,3.95-52.84,11.23,3.6-7.12,7.71-13.97,12.28-20.51.72-1.04,1.45-2,2.17-3,12.15-3.24,25.09-4.95,38.39-4.95,13.3,0,26.25,1.72,38.41,4.96.72.98,1.43,1.95,2.15,2.99,4.57,6.54,8.67,13.39,12.28,20.5"/>
      <path class="cls-4" d="M83.72,10.97c-4.32,0-13.65,2.09-27.62,16.07-5.84,5.84-11.82,13.13-17.79,21.68-5.5,7.83-10.34,16.11-14.48,24.75-8.53,17.99-12.86,36.15-12.86,53.98,0,17.84,4.33,36,12.87,53.98,3.96,8.35,8.82,16.67,14.47,24.75,21.17,30.28,37.54,34.81,45.42,34.8,5.19,0,16.01-2.12,30.23-16.34h0c5.04-5.05,10.15-11.26,15.19-18.47,5.67-8.11,10.53-16.44,14.47-24.74,8.54-17.99,12.87-36.15,12.87-53.99,0-17.84-4.34-36-12.88-53.98-3.95-8.31-8.82-16.64-14.47-24.74C104.66,13.69,88.19,10.97,83.72,10.97M70.69,109.68c-4.2,0-4.21-6.52,0-6.52h9.79c0-4.82,0-9.24,0-13.05h-9.79c-4.21,0-4.2-6.52,0-6.53h9.79s0-5.86,0-5.86c0-4.2,6.52-4.2,6.52,0v5.87s9.78,0,9.78,0c4.21,0,4.21,6.52,0,6.52h-9.79s0,13.05,0,13.05h9.78c4.21,0,4.2,6.53,0,6.52h-9.79s0,13.05,0,13.05h9.78c4.21,0,4.21,6.52,0,6.52h-9.78s0,13.04,0,13.04c3.26,0,6.52,0,9.78,0,4.2,0,4.2,6.52,0,6.52h-9.78s0,13.04,0,13.04h9.78c4.2,0,4.21,6.52,0,6.52h-9.78c0,2.78,0,4.83,0,5.87,0,4.2-6.52,4.2-6.52,0v-5.86c-3.26,0-6.52,0-9.78,0-4.21,0-4.21-6.52,0-6.52h9.79s0-13.04,0-13.04h-9.79c-4.2,0-4.2-6.53,0-6.53h9.79s0-13.05,0-13.05h-9.78c-4.21,0-4.21-6.52,0-6.52h9.79s0-13.05,0-13.05h-9.79M124.31,202.79c-.72,1.04-1.45,2.01-2.18,3-12.15,3.24-25.09,4.95-38.39,4.94-13.29,0-26.24-1.71-38.38-4.94-.72-.99-1.44-1.94-2.18-3-4.57-6.54-8.68-13.39-12.28-20.51,15.53,7.27,33.71,11.23,52.84,11.23,19.12,0,37.3-3.95,52.84-11.22-3.6,7.12-7.71,13.97-12.28,20.5M136.58,72.62c-15.54-7.27-33.71-11.22-52.84-11.22-19.12,0-37.3,3.95-52.84,11.23,3.6-7.12,7.71-13.97,12.28-20.51.72-1.04,1.45-2,2.17-3,12.15-3.24,25.09-4.95,38.39-4.95,13.3,0,26.25,1.72,38.41,4.96.72.98,1.43,1.95,2.15,2.99,4.57,6.54,8.67,13.39,12.28,20.5"/>
    </g>
  </g>
</svg>